<?xml version="1.0" standalone="no"?><!DOCTYPE svg PUBLIC "-//W3C//DTD SVG 1.1//EN" "http://www.w3.org/Graphics/SVG/1.1/DTD/svg11.dtd"><svg t="1588642640493" class="icon" viewBox="0 0 1024 1024" version="1.1" xmlns="http://www.w3.org/2000/svg" p-id="1974" xmlns:xlink="http://www.w3.org/1999/xlink" width="200" height="200"><defs><style type="text/css"></style></defs><path d="M0 486.4h256v51.2H0zM768 486.4h256v51.2H768zM350.8992 314.6752l358.4 358.4-36.1984 36.224-358.4-358.4z" p-id="1975"></path><path d="M314.6752 673.1008l358.4-358.4 36.224 36.1984-358.4 358.4z" p-id="1976"></path><path d="M512 793.6c-156.16 0-281.6-125.44-281.6-281.6S355.84 230.4 512 230.4s281.6 125.44 281.6 281.6-125.44 281.6-281.6 281.6z m0-512c-128 0-230.4 102.4-230.4 230.4s102.4 230.4 230.4 230.4 230.4-102.4 230.4-230.4-102.4-230.4-230.4-230.4z" p-id="1977"></path></svg>