<?xml version="1.0" standalone="no"?><!DOCTYPE svg PUBLIC "-//W3C//DTD SVG 1.1//EN" "http://www.w3.org/Graphics/SVG/1.1/DTD/svg11.dtd"><svg t="1588642659494" class="icon" viewBox="0 0 1024 1024" version="1.1" xmlns="http://www.w3.org/2000/svg" p-id="2362" xmlns:xlink="http://www.w3.org/1999/xlink" width="200" height="200"><defs><style type="text/css"></style></defs><path d="M0 486.4h256v51.2H0zM737.28 291.84l-348.16 204.8-25.6-46.08 348.16-204.8zM768 486.4h256v51.2H768z" p-id="2363"></path><path d="M327.68 588.8c-43.52 0-76.8-33.28-76.8-76.8s33.28-76.8 76.8-76.8 76.8 33.28 76.8 76.8-35.84 76.8-76.8 76.8z m0-102.4c-15.36 0-25.6 10.24-25.6 25.6s10.24 25.6 25.6 25.6 25.6-10.24 25.6-25.6-12.8-25.6-25.6-25.6z" p-id="2364"></path></svg>